<svg width="355" height="324" viewBox="0 0 355 324" fill="none" xmlns="http://www.w3.org/2000/svg">
<path d="M328.716 281.798C328.472 290.327 328.174 298.857 327.93 307.387C258.581 311.937 189.233 316.513 119.857 321.062C119.775 309.797 119.695 298.505 119.613 287.241L328.716 281.771V281.798Z" fill="#1C6833"/>
<path d="M300.501 44.2334C312.091 52.5737 323.708 60.887 335.298 69.2273C327.824 77.6218 320.377 86.0162 312.904 94.3837C249.458 103.591 185.985 112.824 122.54 122.031C122.458 112.472 122.376 102.562 122.295 93.0027C122.214 83.3355 122.132 73.6412 122.078 63.974C181.543 57.3938 241.036 50.8136 300.501 44.2334Z" fill="#1C6833"/>
<path d="M46.7242 40.4702L23.2734 43.8822C23.3276 38.656 23.382 32.4278 23.4903 23.248C31.2348 28.9888 39.0067 34.7295 46.7242 40.4702Z" fill="#A7DFBA"/>
<path d="M125.902 289.298L71.0954 290.734C50.7592 278.792 30.4222 266.823 10.0859 254.881C10.4921 216.754 10.8717 178.654 11.2508 140.526L60.0735 133.432L124.9 158.778C125.198 202.293 125.577 245.755 125.902 289.271V289.298Z" fill="#A7DFBA"/>
<path d="M41.8956 130.833C28.6541 132.539 18.0939 133.893 9.32031 135.03C9.37447 131.564 9.40165 128.071 9.42873 124.604C20.2332 126.69 31.0647 128.748 41.8692 130.833H41.8956Z" fill="#A7DFBA"/>
<path d="M131.096 156.747L66.2695 131.402L130.853 122.032C130.907 135.788 130.988 146.999 131.096 156.747Z" fill="#A7DFBA"/>
<path d="M111.556 321.061C93.2231 310.257 74.8363 299.506 56.5039 288.702L111.311 287.267C111.392 298.531 111.474 309.823 111.556 321.088V321.061Z" fill="#A7DFBA"/>
<path d="M150.464 18.8612C116.48 23.7625 82.4694 28.6637 48.4854 33.5379C39.1973 26.8223 29.9092 20.0797 20.6211 13.3641C56.9339 9.89803 93.2466 6.43193 129.559 2.96582C136.519 8.2733 143.504 13.5537 150.464 18.8612Z" fill="#24AF52"/>
<path d="M259.611 15.3675C230.258 18.7794 200.878 22.1643 171.524 25.5762C164.484 20.2417 157.47 14.9072 150.43 9.57262C181.218 7.35215 212.007 5.13161 242.795 2.91113C248.401 7.05422 254.006 11.2244 259.611 15.3675Z" fill="#24AF52"/>
<path d="M335.295 69.2276C264.213 78.5427 193.157 87.8579 122.075 97.2001C96.973 78.5969 71.8443 59.9665 46.7422 41.3633L256.631 10.8994C268.411 19.6459 286.742 33.2396 298.522 41.9861C308.026 49.0267 325.763 62.187 335.295 69.2276Z" fill="#24AF52"/>
<path d="M117.585 143.831C79.2145 136.059 40.8708 128.288 2.5 120.489C2.71663 97.7426 2.96034 74.9692 3.17697 52.2228L39.4889 46.9424C64.591 65.5456 89.7211 84.176 114.823 102.779C115.744 116.454 116.665 130.129 117.585 143.804V143.831Z" fill="#A7DFBA"/>
<path d="M352.5 91.7832C350.983 141.392 349.44 190.974 347.924 240.582L140.553 157.91C140.418 146.347 140.336 134.758 140.309 123.195L352.5 91.7832Z" fill="#1C6833"/>
<path d="M151.651 292.223L131.694 292.738C131.585 280.119 131.288 240.123 131.179 227.477C131.017 205.733 130.854 183.988 130.691 162.217C160.722 173.969 190.752 185.694 220.783 197.447C197.739 229.021 174.695 260.622 151.651 292.196V292.223Z" fill="#1C6833"/>
<path d="M235.052 195.605C212.847 224.255 190.642 252.932 168.438 281.581C229.23 280.038 290.022 278.494 350.814 276.951C351.112 265.09 351.382 253.202 351.68 241.342C312.795 226.096 273.937 210.851 235.052 195.605Z" fill="#1C6833"/>
<path d="M344.258 281.797H334.238V290.95H344.258V281.797Z" fill="#24AF52"/>
<path d="M334.867 76.3496C329.56 82.0091 324.253 87.6687 318.945 93.3553C324.226 92.6242 329.506 91.893 334.787 91.1618C334.814 86.2334 334.841 81.3051 334.895 76.3496H334.867Z" fill="#24AF52"/>
</svg>
